<?xml version="1.0" encoding="utf-8"?>
<!-- Generator: Adobe Illustrator 16.0.0, SVG Export Plug-In . SVG Version: 6.00 Build 0)  -->
<!DOCTYPE svg PUBLIC "-//W3C//DTD SVG 1.0//EN" "http://www.w3.org/TR/2001/REC-SVG-20010904/DTD/svg10.dtd">
<svg version="1.0" id="Layer_1" xmlns="http://www.w3.org/2000/svg" xmlns:xlink="http://www.w3.org/1999/xlink" x="0px" y="0px"
	 width="800px" height="800px" viewBox="0 0 800 800" enable-background="new 0 0 800 800" xml:space="preserve">
<g>
	<path fill-rule="evenodd" clip-rule="evenodd" fill="#FFFFFF" d="M192.985,275.657c0,0,62.342-102.319,190.411-102.319
		c127.394,0,187.024,98.933,187.024,98.933h172.789l-6.775,42.688c0,0-4.742,16.94-12.871,18.975h12.197
		c0,0,3.386,14.906-20.332,66.403h50.822c0,0,2.035,89.444-107.064,132.138c0,0-56.242,18.297-84.701-12.871
		c0,0-57.599,107.059-191.088,107.059S189.598,516.891,189.598,516.891H33.747l25.071-44.723H41.876l19.651-36.594h33.881
		l6.101-13.553H85.244l38.626-71.149h21.683l8.809-22.361h-18.296l28.46-52.854H192.985L192.985,275.657z"/>
	<path fill-rule="evenodd" clip-rule="evenodd" fill="#FFA818" d="M384.752,602.949c109.772,0,197.865-90.127,197.865-200.574
		c0-111.132-88.093-201.256-197.865-201.256c-109.097,0-197.187,90.125-197.187,201.256
		C187.566,512.822,275.656,602.949,384.752,602.949L384.752,602.949z"/>
	<path fill-rule="evenodd" clip-rule="evenodd" fill="#33117F" d="M475.553,422.703c-18.975,22.357-29.138,29.813-48.111,29.813
		c-6.096,0-9.486-1.357-8.13-4.07l22.361-44.721h8.807c9.489,0,8.133,7.455,5.421,18.297c-0.674,1.355,0.678,2.037,2.035,0.682
		l21.005-37.271c0.678-2.71-1.353-2.71-2.709-1.356c-10.842,14.906-22.36,13.551-26.43,13.551h-4.064l23.717-45.398h9.486
		c12.197,0.679,17.618,10.842,14.231,35.914h4.742l17.619-34.559c1.353-2.711-1.355-5.421-4.743-5.421H392.207
		c-6.778,0-7.455,4.745-0.678,4.745c5.421,0,5.421,8.131,0.678,11.518l-50.823,39.981l10.164,47.434
		c0.678,3.387,3.388,5.418,7.455,5.418h97.576c4.064,0,6.099-2.031,7.456-3.387l17.618-31.168
		C483.683,418.633,478.262,418.633,475.553,422.703L475.553,422.703z M407.113,401.019h-8.81c-0.678,0-1.354,0.675-1.354,1.356
		c0,0,0.675,0.674,1.354,0.674h8.81c2.713,0,5.421,0.676,4.743,2.031l-22.36,42.691c-2.712,5.418-8.809,4.068-10.165,0
		l-10.841-58.274l39.302-30.494c4.064-3.386,11.52-8.809,15.584-8.809h8.134c5.415,0,7.45,2.712,6.095,5.422l-1.353,3.386
		c-1.357,1.356-4.064,1.356-6.776,1.356h-4.744c-0.678,0-1.355,0.678-1.355,1.356c0,0.677,0.678,1.354,1.355,1.354h4.744
		c2.034,0,4.742,0,3.385,1.355l-18.292,35.239C413.891,401.019,409.826,401.019,407.113,401.019L407.113,401.019z"/>
	<path fill-rule="evenodd" clip-rule="evenodd" fill="#33117F" d="M325.8,451.84c-2.711,0-4.745-2.037-5.421-4.068
		c-0.678-2.029-0.678-6.773,0.676-8.811l45.401-81.312c0.678-1.356,2.71-4.066,4.742-4.066c4.067,0,6.101-5.421-0.674-5.421h-36.592
		c-6.778,0-7.454,4.745-0.679,4.745c2.71,0,4.067,2.71,3.391,4.743l-10.166,18.294c-1.355,2.034-4.066,2.034-7.454,2.034h-8.808
		c-0.68,0-0.68,0.679-0.68,1.356c0,0,0,0.676,0.68,0.676h8.808c2.71,0,4.066,0.678,2.71,3.388l-33.203,61.662
		c-2.709,3.385-7.453,4.068-7.453-2.031l12.198-90.123c0.676-3.388-0.678-4.745-3.39-4.745H271.59c-2.033,0-3.389,0.678-4.064,2.033
		l-6.777,8.132c-0.676,1.355-2.711,1.355-4.744,1.355h-14.907c-0.679,0-1.357,0-1.357,0.678c0,0.678,0.678,1.356,1.357,1.356h12.195
		c2.034,0,4.745,0.677,4.068,1.354l-17.621,21.684c-0.677,0.678-2.032,1.356-3.387,1.356l-4.745-0.678
		c-0.676,0-1.354,0.678-1.354,1.355c0,0.676,0.678,1.355,1.354,1.355h4.067c1.354,0,1.354,0.678,0.678,1.356l-16.264,20.326
		c-0.679,0.681-2.71,0.681-4.065,0.681h-14.23c-0.678,0-1.355,0.676-1.355,1.357c0,0.674,0.677,1.348,1.355,1.348h12.198
		c2.032,0,3.387,0,2.032,1.363l-23.04,29.133c-4.066,5.424-25.07,8.135-29.814,8.135l79.28-147.044
		c0.678-1.356,3.389-4.066,6.776-4.066h16.263c8.132,0,7.453-5.42,0.678-5.42h-84.024c-6.777,0-6.777,5.42,0.676,5.42h15.586
		c4.745,0,6.099,2.71,4.745,4.745l-2.034,4.064c-0.677,1.354-2.032,2.032-6.099,2.032h-27.104c-0.679,0-1.355,0-1.355,0.678
		c0,0.677,0.676,1.354,1.355,1.354h27.104c1.356,0,4.066,0,2.034,2.711l-3.388,7.454c-0.679,0.679-2.711,1.356-4.067,1.356h-12.874
		c-0.678,0-1.356,0.677-1.356,1.354c0,0.679,0.678,0.679,1.356,0.679h12.196c2.034,0,2.034,1.354,1.356,3.385l-9.485,16.265
		c-0.679,1.354-2.034,1.354-4.745,1.354h-4.742c-0.679,0-1.356,0.678-1.356,1.357c0,0.676,0.678,0.676,1.356,0.676h4.742
		c2.034,0,2.034,1.356,1.356,3.388l-6.777,13.553c-1.354,1.355-2.709,2.032-7.453,2.032h-27.782c-0.678,0-1.355,0.679-1.355,1.356
		c0,0.676,0.677,1.355,1.355,1.355h27.103c3.391,0,4.744,1.354,3.391,3.386l-14.23,26.428c-0.679,1.355-3.389,1.355-7.454,1.355
		h-27.105c-0.676,0-1.355,0.676-1.355,1.357c0,0.674,0.679,1.356,1.355,1.356h27.105c3.386,0,5.421,0,4.743,1.354l-8.133,15.586
		c-2.032,2.703-6.098,2.703-7.453,2.703h-8.81c-0.676,0-1.354,0-1.354,0.684c0,0.672,0.678,1.355,1.354,1.355h8.81
		c2.709,0,4.744,0.674,3.388,2.031l-10.842,20.326c-0.678,2.037-5.42,2.037-8.131,2.037h-42.69c-0.678,0-1.355,0.676-1.355,1.35
		c0,0.682,0.677,0.682,1.355,0.682h42.69c2.711,0,6.099,0.674,4.743,2.713l-6.775,12.871c-0.677,1.355-3.39,1.355-6.777,1.355
		h-8.809c-0.678,0-0.678,0.676-0.678,1.357c0,0.674,0,0.674,0.678,0.674h8.809c2.033,0,4.745,0.682,4.067,2.031l-4.744,8.137
		c-1.357,2.711-2.711,4.061-6.1,4.061H81.179c-8.133,0-8.133,5.424-1.354,5.424h125.357c4.066,0,4.066-0.674,5.421-3.385
		l18.975-31.852h94.868C331.221,457.258,329.188,451.84,325.8,451.84L325.8,451.84z M251.261,442.348
		c-1.354,4.75-6.775,8.811-13.552,10.168l-6.775,2.029l6.098-10.16c1.356-2.711-2.032-4.742-5.421-0.68
		c-24.393,28.463-32.524,42.016-69.793,42.016h-10.164c-2.71,0-6.099-1.355-4.067-4.068l13.552-24.395h50.146
		c6.775,0,4.743-5.418,0.678-5.418c-2.713,0-5.422-2.037-7.455-4.742c-0.678-1.355-2.032-4.75,0-7.455l19.651-25.75h31.848
		L251.261,442.348L251.261,442.348z M258.038,409.823h-31.172l39.982-52.174L258.038,409.823L258.038,409.823z"/>
	<path fill-rule="evenodd" clip-rule="evenodd" fill="#33117F" d="M733.047,426.09c-0.677-2.713-1.355-1.357-3.386,2.029
		c0,0.682-2.035,0.682-3.392,0.682h-5.42c-0.679,0-0.679,0.676-0.679,1.35c0,0.682,0,1.355,0.679,1.355h5.42
		c1.356,0,1.356,1.355,0.679,2.713c-3.386,7.455-6.777,12.197-11.521,18.297c-0.677,1.355-2.707,2.029-4.063,2.029h-5.421
		c-0.678,0-0.678,0-0.678,0.682c0,0.676,0,1.357,0.678,1.357h5.421c2.033,0-0.679,1.355-0.679,2.029
		c-8.808,11.523-14.906,16.941-21.006,22.367c-1.355,0.672-4.74,0-7.454,0h-4.743c-0.678,0-1.355,0.672-1.355,1.348
		c0,0.682,0.678,1.355,1.355,1.355h4.743c4.065,0,1.355,2.037,0.679,2.037c-13.551,11.518-33.881,15.586-43.367,14.229
		c-30.494-4.068-36.594-26.426-38.623-35.918c-0.679-2.031-2.035-6.092-2.712-8.129c-0.679-4.744,12.875-6.1,16.939-4.063
		c5.421,4.063,18.976,8.129,29.138,8.129c9.485,0,29.817-6.779,35.238-23.713c6.099-16.947-8.812-35.919-15.589-42.694
		c-8.129-8.13-15.583-21.006-12.876-31.169c2.712-7.454,6.78-10.165,15.589-10.165c11.519,0,20.328,7.454,20.328,17.619
		c0,0.677-0.679,2.032-1.354,2.032h-4.068c-0.679,0-1.353,0.676-1.353,1.354c0,0.678,0.674,0.678,1.353,0.678h4.068
		c0.675,0,1.354,1.354,1.354,2.711c-0.679,3.388-1.354,5.422-2.03,9.487c-0.68,2.032,2.707,3.388,3.385,2.032l18.298-32.524
		c1.354-2.71-1.356-3.389-3.392-2.71c-5.422,2.032-13.551,3.387-16.261,1.354c-6.774-5.42-12.873-8.13-22.362-8.13
		c-16.262,0-27.104,4.064-34.559,16.939c-0.68,1.355-2.03,1.355-3.389,1.355h-3.385c-0.678,0-1.356,0-1.356,0.677
		c0,0.679,0.679,1.357,1.356,1.357h2.708c1.355,0,2.035,0,1.355,1.354c-0.679,1.355-0.679,2.711-1.355,4.066
		c-2.03,5.42-1.356,13.552,1.355,21.005c0.68,0.678,0,0.678-1.355,0.678h-4.743c-0.678,0-1.355,0.676-1.355,1.354
		c0,0,0.678,0.678,1.355,0.678h4.743c2.035,0,2.713,0,4.065,1.357c2.033,4.067,4.742,6.773,8.132,10.842
		c0.679,1.354-3.39,1.354-5.421,1.354h-19.652c-0.675,0-1.352,0.676-1.352,1.356c0,0.676,0.677,0.676,1.352,0.676h19.652
		c3.391,0,8.808,0,9.486,0.682c4.742,6.1,10.162,14.229,11.519,21.682c0,2.031-0.678,2.713-3.386,2.713h-2.708
		c-0.683,0-0.683,0.674-0.683,1.35c0,0.682,0,0.682,0.683,0.682h2.708c2.029,0,2.708,0.674,2.708,2.029
		c-2.708,8.129-6.771,14.229-22.36,14.229c-16.263,0-19.649-16.258-14.906-33.199c0.678-3.385,0-4.742-1.356-2.037l-11.521,17.621
		c-0.674,0.676-1.352,1.357-3.386,1.357h-1.355c-0.679,0-1.357,0.674-1.357,1.355c0,0.674,0.679,1.355,1.357,1.355
		c1.355,0,2.033,0.676,1.355,1.35l-4.068,6.781c-7.451-16.268-18.971-35.236-25.069-42.693l0,0
		c15.584-1.355,37.945-15.584,42.013-28.458c6.099-21.685-15.588-29.816-27.107-29.816h-51.5c-6.771,0-7.45,4.745-0.673,4.745
		c3.386,0,6.772,3.387,4.737,6.775l-11.515,20.329c-0.679,1.354-4.064,1.354-8.812,1.354h-4.742c-0.68,0-1.356,0.681-1.356,1.357
		c0,0.677,0.677,0.677,1.356,0.677h4.742c3.392,0,6.777,0.677,5.425,2.711l-13.554,24.395c-0.678,1.357-2.034,1.357-6.776,1.357
		h-4.744c-0.678,0-1.355,0.674-1.355,1.348c0,0.684,0.678,0.684,1.355,0.684h4.744c3.385,0,4.742,0.68,4.064,2.711l-18.293,32.525
		c-2.035,2.029-4.747,2.711-8.812,2.711c-6.776,0-6.776,5.418,0,5.418h44.044c6.777,0,5.422-5.418,1.357-5.418
		c-2.709,0-4.743-4.742-3.388-6.779l22.362-42.686h2.707c9.49,0,12.198,16.258,14.232,33.881c0,1.35-2.712,1.35-7.455,1.35h-12.876
		c0,0-0.678,0.682-0.678,1.355c0,0.682,0.678,1.355,0.678,1.355h12.876c3.391,0,7.455,0,8.13,0.682
		c0.678,8.131,1.355,14.904,2.712,21.002c0.678,2.031-3.387,2.031-6.777,2.031h-16.262l-0.679,0.682
		c0,0.674,0.679,1.355,0.679,1.355h16.262c4.743,0,7.455,0,8.134,1.357c6.777,25.068,35.915,44.721,64.372,43.365
		c25.073-0.682,45.4-14.229,56.242-22.365c14.231-11.516,34.559-35.236,43.37-52.852
		C731.017,432.861,733.725,428.801,733.047,426.09L733.047,426.09z M567.707,392.208c-3.387,2.708-8.808,6.099-9.485,5.418
		c-1.353-2.032-6.099-4.742-8.809-6.096l20.328-37.271c1.355-1.354,2.034-2.032,4.065-2.032c8.133,0,10.845,8.81,6.776,19.651
		C578.553,379.334,573.807,387.463,567.707,392.208L567.707,392.208z"/>
	<path fill-rule="evenodd" clip-rule="evenodd" fill="#33117F" d="M319.7,314.959c-4.742,5.42-10.165,6.777-16.262,6.777h-1.356
		l10.844-21.684c0-1.355,1.354-2.034,2.71-2.034c1.354,0,1.354-2.709-0.678-2.709h-16.941c-1.356,0-2.034,2.709-0.678,2.709
		c1.354,0,2.033,2.034,1.354,3.389l-10.164,18.972c-0.678,0.679-1.356,1.356-2.709,1.356c-1.356,0.677-2.711,3.388-0.679,3.388
		h27.106c2.032,0,2.71-1.356,3.388-2.034l5.419-8.131C321.733,313.603,320.378,313.603,319.7,314.959L319.7,314.959z"/>
	<path fill-rule="evenodd" clip-rule="evenodd" fill="#33117F" d="M401.693,295.984c-0.679,0.678-2.711,0.678-3.39,0
		c-2.71-1.354-6.774-2.708-8.807-2.708c-6.778,0-11.522,0.677-14.231,6.776c-2.033,5.422,0,9.486,6.099,12.197
		c2.032,1.354,5.42,2.71,4.065,6.096c-0.676,2.035-3.387,2.035-5.42,2.035c-3.388,0-7.454-2.035-8.133-6.776
		c-0.678-1.354-2.03-0.677-2.71,0l-4.065,7.456c0,1.354,1.355,2.031,2.033,1.354c1.357-1.354,4.064-1.354,5.421-0.677
		c2.034,1.354,6.777,4.065,10.164,3.388c6.099,0,10.843-1.356,14.232-6.779c3.386-5.418,1.354-10.163-4.743-12.871
		c-3.39-2.035-6.101-4.745-4.745-7.456c1.355-2.034,4.067-1.356,5.419-1.356c2.712,0.679,6.101,3.39,6.101,5.423
		c0.677,0.678,1.354,1.354,2.032,0l2.034-4.744C403.728,296.662,402.371,295.984,401.693,295.984L401.693,295.984z"/>
	<path fill-rule="evenodd" clip-rule="evenodd" fill="#33117F" d="M591.424,304.117l2.035-4.742
		c1.355-2.034-0.679-4.066-3.387-4.066h-31.851c-2.03,0-1.353,2.709-0.679,2.709c2.035,0,2.713,2.034,1.356,4.067l-9.486,18.294
		c-1.354,1.356-2.033,2.033-4.067,2.033c-2.03,0-2.709,2.711,0,2.711h31.85c1.357,0,2.03-0.677,2.71-1.356l4.064-6.099
		c1.355-1.355-0.675-1.355-1.353-0.676c-6.099,6.097-11.521,5.419-16.262,5.419h-3.392l4.068-9.486h0.675c3.39,0,6.1,0,7.454,2.033
		c0,0.678,1.357,0.678,2.034,0l4.064-7.454c0-1.355-1.354-1.355-2.034-0.678c-1.351,2.711-8.129,2.032-9.484,2.032h-1.352
		l6.095-10.842h6.099c3.387,0,6.776,2.711,8.133,5.421C588.716,304.117,590.746,304.795,591.424,304.117L591.424,304.117z"/>
	<path fill-rule="evenodd" clip-rule="evenodd" fill="#33117F" d="M509.435,295.309h-10.842c-2.713,0-2.034,2.709-0.679,2.709
		c2.03,0,4.064,2.711,2.709,5.421l-4.743,8.131l-10.163-14.909c-0.678-0.678-2.034-1.354-3.391-1.354h-11.519
		c-2.031,0-1.354,2.709-0.675,2.709c2.03,0,2.03,1.357,1.352,2.711l-8.808,16.94c-0.677,1.356-3.386,2.032-4.064,0l-6.776-22.361
		c-0.678-0.679-4.064-0.679-5.421,0l-16.939,14.23h-9.486c-1.356,0-2.034,0.677-2.034,1.354c0,1.357,0.678,2.034,2.034,2.034h4.742
		l-4.742,4.067c-2.034,2.032-4.746,4.743-6.776,4.743h-1.356c-1.356,0-2.03,0-2.03,1.354c0,1.357,0.674,2.034,2.03,2.034h14.231
		c2.03,0,2.03-3.388,0.674-3.388c-1.352,0-4.064-2.034-2.03-4.743l4.744-4.067h8.129c4.746,0,8.133,6.099,5.425,7.453l-2.036,1.356
		c-1.354,0.677-2.033,3.388,0,3.388h27.105c2.034,0,1.355-2.711,0.678-2.711c-2.712,0-1.353-4.068-1.353-5.419l7.452-13.554
		l10.163,19.65c0.678,1.357,1.355,2.034,2.034,2.034h4.064c1.356,0,1.356-0.677,2.034-2.034l11.52-20.327
		c2.031-4.066,3.386-4.745,5.42-4.745C511.465,298.018,512.142,295.309,509.435,295.309L509.435,295.309z M433.54,309.539
		l10.841-8.81v8.81H433.54L433.54,309.539z"/>
	<path fill-rule="evenodd" clip-rule="evenodd" fill="#33117F" d="M348.161,293.954c-9.487,0-18.973,4.743-21.007,14.906
		c-2.032,8.81,4.067,17.618,14.908,17.618c10.164,0,19.651-6.776,21.684-16.262C365.78,300.729,358.327,293.954,348.161,293.954
		L348.161,293.954z M350.871,312.249c-2.71,6.096-7.453,10.164-10.841,8.13c-3.387-1.354-3.387-7.453-0.679-13.552
		c3.389-6.099,8.131-9.487,11.52-8.131C354.259,300.052,354.259,306.15,350.871,312.249L350.871,312.249z"/>
	<path fill-rule="evenodd" clip-rule="evenodd" fill="#33117F" d="M541.959,308.86h-12.198c-2.034,0-1.355,2.032-0.677,2.032
		c0.677,0,2.034,0.679,2.034,2.034c0,5.418-2.034,7.453-6.777,7.453s-6.099-6.099-2.709-12.874
		c1.356-4.742,6.773-8.809,13.551-8.809c3.39,0,6.776,0.678,7.454,4.743c0,0.678,1.357,0.678,2.035,0l2.708-5.421
		c0.679-0.677,0-1.356-1.356-1.356c-0.678,0-2.029,1.356-3.387,0c-2.034-1.354-7.454-3.386-11.519-3.386
		c-6.777,0-16.263,1.354-22.361,12.198c-5.421,10.163,2.708,20.327,10.163,20.327c4.068,0,9.485-3.388,12.198-4.065l2.707,2.032
		c0.679,0.679,2.034,1.356,2.713,1.356h1.352c0.683,0,1.361-2.034,2.035-2.711l4.747-11.521
		C545.346,309.539,544.672,308.86,541.959,308.86L541.959,308.86z"/>
	<path fill-rule="evenodd" clip-rule="evenodd" fill="#33117F" d="M710.686,295.984c-1.356,0.678-2.709,0.678-4.063,0
		c-2.036-1.354-6.1-2.708-8.813-2.708c-6.093,0-10.839,0.677-13.549,6.776c-2.712,5.422,0,9.486,5.42,12.197
		c2.709,1.354,6.1,2.71,4.744,6.096c-0.678,2.035-3.386,2.035-5.421,2.035c-3.387,0-8.134-2.035-8.808-6.776
		c0-1.354-2.035-0.677-2.035,0l-4.063,7.456c-0.678,1.354,0.674,2.031,1.353,1.354c1.355-1.354,4.746-1.354,6.099-0.677
		c2.033,1.354,6.776,4.065,9.49,3.388c6.771,0,10.84-1.356,14.228-6.779c3.387-5.418,1.356-10.163-4.065-12.871
		c-3.392-2.035-6.099-4.745-4.747-7.456c0.679-2.034,4.069-1.356,5.425-1.356c2.708,0.679,6.099,3.39,6.099,5.423
		c0,0.678,1.353,1.354,2.031,0l2.034-4.744C712.721,296.662,710.686,295.984,710.686,295.984L710.686,295.984z"/>
	<path fill-rule="evenodd" clip-rule="evenodd" fill="#33117F" d="M624.627,314.959c-4.064,5.42-9.485,6.777-15.584,6.777h-1.356
		l10.845-21.684c0-1.355,1.354-2.034,2.709-2.034c1.357,0,1.357-2.709-0.678-2.709h-16.94c-1.353,0-2.03,2.709-0.679,2.709
		c1.357,0,2.035,2.034,1.357,3.389l-10.164,18.972c-0.678,0.679-1.356,1.356-2.713,1.356c-1.352,0.677-2.708,3.388-0.678,3.388
		h27.104c2.035,0,2.713-1.356,3.391-2.034l5.42-8.131C627.339,313.603,625.983,313.603,624.627,314.959L624.627,314.959z"/>
	<path fill-rule="evenodd" clip-rule="evenodd" fill="#33117F" d="M665.962,298.018c4.065,0,7.457,2.711,8.135,5.421
		c0.674,0.678,2.708,1.356,2.708,0.678l2.713-4.742c0.678-2.034-0.678-4.066-3.391-4.066h-31.848c-2.712,0-2.033,2.709-0.677,2.709
		c2.033,0,2.713,2.034,1.355,4.067l-9.484,18.294c-1.356,1.356-2.714,2.033-4.747,2.033c-1.357,0-2.03,2.711,0,2.711h32.525
		c1.355,0,2.033-0.677,2.71-1.356l4.065-6.099c1.356-1.355-1.352-1.355-2.03-0.676c-5.421,6.097-11.52,5.419-15.589,5.419h-4.063
		l4.741-9.486h0.678c2.713,0,6.099,0,6.778,2.033c0.679,0.678,2.033,0.678,2.709,0l3.39-7.454c0.679-1.355-0.68-1.355-1.356-0.678
		c-1.356,2.711-8.129,2.032-10.163,2.032h-0.678l5.419-10.842H665.962L665.962,298.018z"/>
	<path fill-rule="evenodd" clip-rule="evenodd" fill="#33117F" d="M475.553,422.703c-18.975,22.357-29.138,29.813-48.111,29.813
		c-6.096,0-9.486-1.357-8.13-4.07l22.361-44.721h8.807c9.489,0,8.133,7.455,5.421,18.297c-0.674,1.355,0.678,2.037,2.035,0.682
		l21.005-37.271c0.678-2.71-1.353-2.71-2.709-1.356c-10.842,14.906-22.36,13.551-26.43,13.551h-4.064l23.717-45.398h9.486
		c12.197,0.679,17.618,10.842,14.231,35.914h4.742l17.619-34.559c1.353-2.711-1.355-5.421-4.743-5.421H392.207
		c-6.778,0-7.455,4.745-0.678,4.745c5.421,0,5.421,8.131,0.678,11.518l-50.823,39.981l10.164,47.434
		c0.678,3.387,3.388,5.418,7.455,5.418h97.576c4.064,0,6.099-2.031,7.456-3.387l17.618-31.168
		C483.683,418.633,478.262,418.633,475.553,422.703L475.553,422.703z M407.113,401.019h-8.81c-0.678,0-1.354,0.675-1.354,1.356
		c0,0,0.675,0.674,1.354,0.674h8.81c2.713,0,5.421,0.676,4.743,2.031l-22.36,42.691c-2.712,5.418-8.809,4.068-10.165,0
		l-10.841-58.274l39.302-30.494c4.064-3.386,11.52-8.809,15.584-8.809h8.134c5.415,0,7.45,2.712,6.095,5.422l-1.353,3.386
		c-1.357,1.356-4.064,1.356-6.776,1.356h-4.744c-0.678,0-1.355,0.678-1.355,1.356c0,0.677,0.678,1.354,1.355,1.354h4.744
		c2.034,0,4.742,0,3.385,1.355l-18.292,35.239C413.891,401.019,409.826,401.019,407.113,401.019L407.113,401.019z"/>
	<path fill-rule="evenodd" clip-rule="evenodd" fill="#33117F" d="M325.8,451.84c-2.711,0-4.745-2.037-5.421-4.068
		c-0.678-2.029-0.678-6.773,0.676-8.811l45.401-81.312c0.678-1.356,2.71-4.066,4.742-4.066c4.067,0,6.101-5.421-0.674-5.421h-36.592
		c-6.778,0-7.454,4.745-0.679,4.745c2.71,0,4.067,2.71,3.391,4.743l-10.166,18.294c-1.355,2.034-4.066,2.034-7.454,2.034h-8.808
		c-0.68,0-0.68,0.679-0.68,1.356c0,0,0,0.676,0.68,0.676h8.808c2.71,0,4.066,0.678,2.71,3.388l-33.203,61.662
		c-2.709,3.385-7.453,4.068-7.453-2.031l12.198-90.123c0.676-3.388-0.678-4.745-3.39-4.745H271.59c-2.033,0-3.389,0.678-4.064,2.033
		l-6.777,8.132c-0.676,1.355-2.711,1.355-4.744,1.355h-14.907c-0.679,0-1.357,0-1.357,0.678c0,0.678,0.678,1.356,1.357,1.356h12.195
		c2.034,0,4.745,0.677,4.068,1.354l-17.621,21.684c-0.677,0.678-2.032,1.356-3.387,1.356l-4.745-0.678
		c-0.676,0-1.354,0.678-1.354,1.355c0,0.676,0.678,1.355,1.354,1.355h4.067c1.354,0,1.354,0.678,0.678,1.356l-16.264,20.326
		c-0.679,0.681-2.71,0.681-4.065,0.681h-14.23c-0.678,0-1.355,0.676-1.355,1.357c0,0.674,0.677,1.348,1.355,1.348h12.198
		c2.032,0,3.387,0,2.032,1.363l-23.04,29.133c-0.261,0.348-0.59,0.695-0.985,1.021c0.897,4.223,1.912,8.408,3.063,12.531h16.219
		c6.775,0,4.743-5.418,0.678-5.418c-2.713,0-5.422-2.037-7.455-4.742c-0.678-1.355-2.032-4.75,0-7.455l19.651-25.75h31.848
		l-4.744,28.455c-1.354,4.75-6.775,8.811-13.552,10.168l-6.775,2.029l6.098-10.16c1.356-2.711-2.032-4.742-5.421-0.68
		c-12.35,14.412-20.534,24.998-30.438,31.941c2.171,5.619,4.596,11.105,7.236,16.469c1.053-0.449,1.37-1.35,2.196-3.006
		l18.975-31.852h94.868C331.221,457.258,329.188,451.84,325.8,451.84L325.8,451.84z M187.618,406.498l54.834-101.703
		c0.678-1.356,3.389-4.066,6.776-4.066h16.263c8.132,0,7.453-5.42,0.678-5.42H217.74c-19.112,31.015-30.174,67.715-30.174,107.066
		C187.566,403.748,187.588,405.127,187.618,406.498L187.618,406.498z M258.038,409.823h-31.172l39.982-52.174L258.038,409.823
		L258.038,409.823z"/>
	<path fill-rule="evenodd" clip-rule="evenodd" fill="#33117F" d="M581.586,423.027c-4.263-7.084-8.311-13.104-11.166-16.592l0,0
		c3.781-0.324,7.962-1.41,12.182-3.053c0.004-0.342,0.016-0.674,0.016-1.008c0-10.193-0.744-20.203-2.173-29.98
		c-2.105,7.313-6.774,15.18-12.737,19.813c-3.387,2.708-8.808,6.099-9.485,5.418c-1.353-2.032-6.099-4.742-8.809-6.096
		l20.328-37.271c1.355-1.354,2.034-2.032,4.065-2.032c0.995,0,1.913,0.135,2.742,0.386c-0.367-1.494-0.763-2.974-1.167-4.453
		h-41.557c-6.771,0-7.45,4.745-0.673,4.745c3.386,0,6.772,3.387,4.737,6.775l-11.515,20.329c-0.679,1.354-4.064,1.354-8.812,1.354
		h-4.742c-0.68,0-1.356,0.681-1.356,1.357c0,0.677,0.677,0.677,1.356,0.677h4.742c3.392,0,6.777,0.677,5.425,2.711l-13.554,24.395
		c-0.678,1.357-2.034,1.357-6.776,1.357h-4.744c-0.678,0-1.355,0.674-1.355,1.348c0,0.684,0.678,0.684,1.355,0.684h4.744
		c3.385,0,4.742,0.68,4.064,2.711l-18.293,32.525c-2.035,2.029-4.747,2.711-8.812,2.711c-6.776,0-6.776,5.418,0,5.418h44.044
		c6.777,0,5.422-5.418,1.357-5.418c-2.709,0-4.743-4.742-3.388-6.779l22.362-42.686h2.707c9.49,0,12.198,16.258,14.232,33.881
		c0,1.35-2.712,1.35-7.455,1.35h-12.876c0,0-0.678,0.682-0.678,1.355c0,0.682,0.678,1.355,0.678,1.355h12.876
		c3.391,0,7.455,0,8.13,0.682c0.678,8.131,1.355,14.904,2.712,21.002c0.678,2.031-3.387,2.031-6.777,2.031h-16.262l-0.679,0.682
		c0,0.674,0.679,1.355,0.679,1.355h16.262c4.743,0,7.455,0,8.134,1.357c0.786,2.904,1.883,5.75,3.235,8.484
		C575.387,459.25,579.719,441.502,581.586,423.027L581.586,423.027z"/>
	<path fill-rule="evenodd" clip-rule="evenodd" fill="#33117F" d="M319.7,314.959c-4.742,5.42-10.165,6.777-16.262,6.777h-1.356
		l10.844-21.684c0-1.355,1.354-2.034,2.71-2.034c1.354,0,1.354-2.709-0.678-2.709h-16.941c-1.356,0-2.034,2.709-0.678,2.709
		c1.354,0,2.033,2.034,1.354,3.389l-10.164,18.972c-0.678,0.679-1.356,1.356-2.709,1.356c-1.356,0.677-2.711,3.388-0.679,3.388
		h27.106c2.032,0,2.71-1.356,3.388-2.034l5.419-8.131C321.733,313.603,320.378,313.603,319.7,314.959L319.7,314.959z"/>
	<path fill-rule="evenodd" clip-rule="evenodd" fill="#33117F" d="M401.693,295.984c-0.679,0.678-2.711,0.678-3.39,0
		c-2.71-1.354-6.774-2.708-8.807-2.708c-6.778,0-11.522,0.677-14.231,6.776c-2.033,5.422,0,9.486,6.099,12.197
		c2.032,1.354,5.42,2.71,4.065,6.096c-0.676,2.035-3.387,2.035-5.42,2.035c-3.388,0-7.454-2.035-8.133-6.776
		c-0.678-1.354-2.03-0.677-2.71,0l-4.065,7.456c0,1.354,1.355,2.031,2.033,1.354c1.357-1.354,4.064-1.354,5.421-0.677
		c2.034,1.354,6.777,4.065,10.164,3.388c6.099,0,10.843-1.356,14.232-6.779c3.386-5.418,1.354-10.163-4.743-12.871
		c-3.39-2.035-6.101-4.745-4.745-7.456c1.355-2.034,4.067-1.356,5.419-1.356c2.712,0.679,6.101,3.39,6.101,5.423
		c0.677,0.678,1.354,1.354,2.032,0l2.034-4.744C403.728,296.662,402.371,295.984,401.693,295.984L401.693,295.984z"/>
	<path fill-rule="evenodd" clip-rule="evenodd" fill="#33117F" d="M557.706,304.385l-8.293,15.995
		c-1.354,1.356-2.033,2.033-4.067,2.033c-2.03,0-2.709,2.711,0,2.711h22.226c-0.368-0.908-0.744-1.81-1.127-2.71
		c-0.028,0-0.063-0.001-0.089-0.001h-3.392l1.725-4.02C562.538,313.616,560.205,308.949,557.706,304.385L557.706,304.385z"/>
	<path fill-rule="evenodd" clip-rule="evenodd" fill="#33117F" d="M509.435,295.309h-10.842c-2.713,0-2.034,2.709-0.679,2.709
		c2.03,0,4.064,2.711,2.709,5.421l-4.743,8.131l-10.163-14.909c-0.678-0.678-2.034-1.354-3.391-1.354h-11.519
		c-2.031,0-1.354,2.709-0.675,2.709c2.03,0,2.03,1.357,1.352,2.711l-8.808,16.94c-0.677,1.356-3.386,2.032-4.064,0l-6.776-22.361
		c-0.678-0.679-4.064-0.679-5.421,0l-16.939,14.23h-9.486c-1.356,0-2.034,0.677-2.034,1.354c0,1.357,0.678,2.034,2.034,2.034h4.742
		l-4.742,4.067c-2.034,2.032-4.746,4.743-6.776,4.743h-1.356c-1.356,0-2.03,0-2.03,1.354c0,1.357,0.674,2.034,2.03,2.034h14.231
		c2.03,0,2.03-3.388,0.674-3.388c-1.352,0-4.064-2.034-2.03-4.743l4.744-4.067h8.129c4.746,0,8.133,6.099,5.425,7.453l-2.036,1.356
		c-1.354,0.677-2.033,3.388,0,3.388h27.105c2.034,0,1.355-2.711,0.678-2.711c-2.712,0-1.353-4.068-1.353-5.419l7.452-13.554
		l10.163,19.65c0.678,1.357,1.355,2.034,2.034,2.034h4.064c1.356,0,1.356-0.677,2.034-2.034l11.52-20.327
		c2.031-4.066,3.386-4.745,5.42-4.745C511.465,298.018,512.142,295.309,509.435,295.309L509.435,295.309z M433.54,309.539
		l10.841-8.81v8.81H433.54L433.54,309.539z"/>
	<path fill-rule="evenodd" clip-rule="evenodd" fill="#33117F" d="M348.161,293.954c-9.487,0-18.973,4.743-21.007,14.906
		c-2.032,8.81,4.067,17.618,14.908,17.618c10.164,0,19.651-6.776,21.684-16.262C365.78,300.729,358.327,293.954,348.161,293.954
		L348.161,293.954z M350.871,312.249c-2.71,6.096-7.453,10.164-10.841,8.13c-3.387-1.354-3.387-7.453-0.679-13.552
		c3.389-6.099,8.131-9.487,11.52-8.131C354.259,300.052,354.259,306.15,350.871,312.249L350.871,312.249z"/>
	<path fill-rule="evenodd" clip-rule="evenodd" fill="#33117F" d="M541.959,308.86h-12.198c-2.034,0-1.355,2.032-0.677,2.032
		c0.677,0,2.034,0.679,2.034,2.034c0,5.418-2.034,7.453-6.777,7.453s-6.099-6.099-2.709-12.874
		c1.356-4.742,6.773-8.809,13.551-8.809c3.39,0,6.776,0.678,7.454,4.743c0,0.678,1.357,0.678,2.035,0l2.708-5.421
		c0.679-0.677,0-1.356-1.356-1.356c-0.678,0-2.029,1.356-3.387,0c-2.034-1.354-7.454-3.386-11.519-3.386
		c-6.777,0-16.263,1.354-22.361,12.198c-5.421,10.163,2.708,20.327,10.163,20.327c4.068,0,9.485-3.388,12.198-4.065l2.707,2.032
		c0.679,0.679,2.034,1.356,2.713,1.356h1.352c0.683,0,1.361-2.034,2.035-2.711l4.747-11.521
		C545.346,309.539,544.672,308.86,541.959,308.86L541.959,308.86z"/>
	<path fill-rule="evenodd" clip-rule="evenodd" fill="#101112" d="M540.603,272.271c-2.713-2.712-6.099-8.812-30.491-30.495
		c-35.235-31.17-82.67-45.4-127.393-45.4c-33.204,0-61.664,7.455-93.51,25.072c-40.656,22.361-57.599,48.111-61.663,53.532
		c-2.71,3.389-3.388,6.099-1.355,6.777c1.355,0.679,4.066-2.034,6.776-5.42c12.198-15.585,27.783-31.849,44.723-40.656
		c5.421,0.676,12.196,7.452,14.908,11.517c-10.163,6.099-27.782,18.976-34.559,24.396c-6.099,4.743-8.131,6.775-6.777,8.808
		c1.356,1.355,6.101-1.354,9.488-4.065c6.777-5.421,25.75-18.973,35.235-24.395c6.099,7.455,4.066,21.685,2.034,24.395
		c-1.356,2.032-1.356,3.386,0,4.065c1.355,1.355,2.71-0.679,4.743-3.388c4.066-6.775,2.71-21.684-1.354-27.102
		c11.52-7.456,27.781-12.199,37.945-14.231c0.679,1.354,12.874,36.592,15.584,43.367c1.356,3.388,2.035,7.453,4.745,6.774
		c2.032-0.676,0.676-4.065-0.679-8.131c-2.032-4.742-10.841-34.559-13.552-43.366c2.711-2.034,23.041-6.099,27.783-5.423
		c-2.035,12.876,6.776,18.296,16.94,25.075c6.099,3.388,40.657,23.715,48.109,27.781c4.068,2.709,7.455,4.743,8.133,3.389
		c1.356-1.354-1.355-4.745-5.422-6.777c-3.389-2.032-35.914-20.329-49.464-29.137c-9.487-6.1-14.908-12.875-12.198-21.685
		c2.71-0.677,12.875-0.677,23.04-0.677c69.113,0.677,124.683,39.979,131.454,46.755c2.713,3.387,7.456,6.097,8.812,4.743
		C543.994,277.689,541.959,273.625,540.603,272.271L540.603,272.271z M298.693,244.487c-2.032-2.711-10.841-10.842-15.584-12.876
		c10.841-8.129,36.591-19.648,46.755-21.683c1.356,2.709,6.099,14.907,7.455,19.65C329.188,231.611,306.147,239.744,298.693,244.487
		L298.693,244.487z M374.589,222.126c-9.488,0.677-25.752,4.066-31.849,6.099c-1.356-4.066-5.42-16.262-6.777-20.33
		c16.94-4.742,35.913-6.097,50.821-4.742C382.718,205.864,375.943,218.737,374.589,222.126L374.589,222.126z M419.312,221.447
		c-14.91-0.676-27.104-1.354-37.948,0c3.389-8.131,9.487-14.908,14.23-18.294c10.164,0,21.005,2.032,29.138,3.386
		c27.104,5.423,68.44,21.686,86.733,46.079C487.073,236.355,447.771,223.481,419.312,221.447L419.312,221.447z"/>
	<path fill-rule="evenodd" clip-rule="evenodd" fill="#101112" d="M555.512,509.436c2.71-4.744,4.744-7.455,2.71-8.129
		c-2.03-1.357-4.064,2.711-6.777,7.447c-8.129,13.553-16.94,25.752-36.589,44.047c-22.361,19.654-48.114,31.852-56.92,34.563
		c-7.456-21.008-35.916-111.809-36.59-113.84c-1.356-4.068-2.713-5.424-3.391-4.742c-2.034,0.674-0.679,2.705,0,6.092
		c0.678,3.393,34.559,110.453,35.916,113.84c-6.777,3.395-34.56,11.523-53.535,11.523c-16.94,0.674-37.267,0-47.433-2.031
		c-12.195-9.492-39.301-48.115-49.465-68.443c-12.195-23.713-20.329-46.078-22.361-55.563c-0.677-4.744-2.032-7.457-4.743-7.457
		c-2.034,0.684-0.678,4.068,0.677,8.813c3.389,12.871,9.487,29.813,22.361,54.891c13.554,26.424,37.271,57.594,44.046,66.404
		c-21.685-4.742-48.11-14.91-73.861-33.881c-21.683-16.266-39.979-36.594-49.467-52.178c-2.033-2.037-3.389-6.1-6.097-4.742
		c-0.678,0.674,0.677,4.061,2.032,6.773c13.552,24.395,46.755,58.949,89.445,78.602c50.143,21.684,104.355,21.01,152.465,2.041
		C500.623,577.197,537.217,543.316,555.512,509.436L555.512,509.436z"/>
	<path fill-rule="evenodd" clip-rule="evenodd" fill="#101112" d="M226.78,281.858c1.462-0.124,3.822-2.566,6.186-5.523
		c12.198-15.585,27.783-31.849,44.723-40.656c5.421,0.676,12.196,7.452,14.908,11.517c-10.163,6.099-27.782,18.976-34.559,24.396
		c-6.099,4.743-8.131,6.775-6.777,8.808c1.356,1.355,6.101-1.354,9.488-4.065c6.777-5.421,25.75-18.973,35.235-24.395
		c6.099,7.455,4.066,21.685,2.034,24.395c-1.356,2.032-1.356,3.386,0,4.065c1.355,1.355,2.71-0.679,4.743-3.388
		c4.066-6.775,2.71-21.684-1.354-27.102c11.52-7.456,27.781-12.199,37.945-14.231c0.679,1.354,12.874,36.592,15.584,43.367
		c1.356,3.388,2.035,7.453,4.745,6.774c2.032-0.676,0.676-4.065-0.679-8.131c-2.032-4.742-10.841-34.559-13.552-43.366
		c2.711-2.034,23.041-6.099,27.783-5.423c-2.035,12.876,6.776,18.296,16.94,25.075c6.099,3.388,40.657,23.715,48.109,27.781
		c4.068,2.709,7.455,4.743,8.133,3.389c1.356-1.354-1.355-4.745-5.422-6.777c-3.389-2.032-35.914-20.329-49.464-29.137
		c-9.487-6.1-14.908-12.875-12.198-21.685c2.71-0.677,12.875-0.677,23.04-0.677c69.113,0.677,124.683,39.979,131.454,46.755
		c2,2.497,5.104,4.628,7.142,5.033c-36.12-47.186-92.521-77.54-156.214-77.54C320.026,201.119,262.707,232.851,226.78,281.858
		L226.78,281.858z M298.693,244.487c-2.032-2.711-10.841-10.842-15.584-12.876c10.841-8.129,36.591-19.648,46.755-21.683
		c1.356,2.709,6.099,14.907,7.455,19.65C329.188,231.611,306.147,239.744,298.693,244.487L298.693,244.487z M374.589,222.126
		c-9.488,0.677-25.752,4.066-31.849,6.099c-1.356-4.066-5.42-16.262-6.777-20.33c16.94-4.742,35.913-6.097,50.821-4.742
		C382.718,205.864,375.943,218.737,374.589,222.126L374.589,222.126z M419.312,221.447c-14.91-0.676-27.104-1.354-37.948,0
		c3.389-8.131,9.487-14.908,14.23-18.294c10.164,0,21.005,2.032,29.138,3.386c27.104,5.423,68.44,21.686,86.733,46.079
		C487.073,236.355,447.771,223.481,419.312,221.447L419.312,221.447z"/>
	<path fill-rule="evenodd" clip-rule="evenodd" fill="#101112" d="M557.06,501.088c-1.667,0.436-3.418,3.83-5.615,7.666
		c-8.129,13.553-16.94,25.752-36.589,44.047c-22.361,19.654-48.114,31.852-56.92,34.563c-7.456-21.008-35.916-111.809-36.59-113.84
		c-1.356-4.068-2.713-5.424-3.391-4.742c-2.034,0.674-0.679,2.705,0,6.092c0.678,3.393,34.559,110.453,35.916,113.84
		c-6.777,3.395-34.56,11.523-53.535,11.523c-16.94,0.674-37.267,0-47.433-2.031c-12.195-9.492-39.301-48.115-49.465-68.443
		c-12.195-23.713-20.329-46.078-22.361-55.563c-0.677-4.744-2.032-7.457-4.743-7.457c-2.034,0.684-0.678,4.068,0.677,8.813
		c3.389,12.871,9.487,29.813,22.361,54.891c13.554,26.424,37.271,57.594,44.046,66.404c-21.685-4.742-48.11-14.91-73.861-33.881
		c-21.683-16.266-39.979-36.594-49.467-52.178c-1.486-1.488-2.604-4.053-4.16-4.797c34.512,58.029,97.123,96.955,168.822,96.955
		C458.907,602.949,523.162,561.822,557.06,501.088L557.06,501.088z"/>
</g>
</svg>
